<svg xmlns="http://www.w3.org/2000/svg" width="600" height="200" viewBox="0 0 600 200">
  <rect width="600" height="200" fill="white"></rect>

  <!-- Icon: gap=3px, radius=4px -->
  <g transform="translate(70 70)">
    <rect x="0" y="0" width="32" height="32" rx="4" fill="#0072CE"></rect>
    <rect x="35" y="0" width="32" height="32" rx="4" fill="#E06F00"></rect>
    <rect x="0" y="35" width="32" height="32" rx="4" fill="#3F9C35"></rect>
    <rect x="35" y="35" width="32" height="32" rx="4" fill="#582B94"></rect>
  </g>

  <!-- Wordmark updated: EXACT path, fill-only -->
  <g transform="translate(153 75.25) scale(0.763)" fill="#000000">
    <path d="M 290.186 73.731 L 277.393 73.731 L 277.393 0.977 L 297.021 0.977 L 310.84 38.526 Q 311.572 40.625 312.476 43.921 Q 313.379 47.217 314.331 51.026 Q 315.283 54.834 316.138 58.472 Q 316.992 62.11 317.578 64.893 L 314.941 64.893 Q 315.527 62.159 316.382 58.57 Q 317.236 54.981 318.188 51.148 Q 319.141 47.315 320.044 43.994 Q 320.947 40.674 321.631 38.526 L 335.303 0.977 L 354.98 0.977 L 354.98 73.731 L 341.992 73.731 L 341.992 37.012 Q 341.992 34.668 342.041 31.348 Q 342.09 28.028 342.188 24.219 Q 342.285 20.411 342.383 16.529 Q 342.48 12.647 342.48 9.131 L 343.408 9.131 Q 342.432 12.989 341.284 17.017 Q 340.137 21.045 339.014 24.829 Q 337.891 28.614 336.89 31.787 Q 335.889 34.961 335.156 37.012 L 321.729 73.731 L 310.645 73.731 L 297.021 37.012 Q 296.289 34.961 295.288 31.861 Q 294.287 28.76 293.14 25 Q 291.992 21.241 290.845 17.163 Q 289.697 13.086 288.574 9.131 L 289.648 9.131 Q 289.697 12.403 289.795 16.236 Q 289.893 20.069 289.966 23.926 Q 290.039 27.784 290.112 31.177 Q 290.186 34.571 290.186 37.012 L 290.186 73.731 Z
M 264.111 24.219 L 250.781 24.219 Q 249.902 21.289 248.364 18.994 Q 246.826 16.7 244.653 15.039 Q 242.48 13.379 239.722 12.525 Q 236.963 11.67 233.643 11.67 Q 227.783 11.67 223.169 14.649 Q 218.555 17.627 215.918 23.34 Q 213.281 29.053 213.281 37.354 Q 213.281 45.557 215.918 51.294 Q 218.555 57.032 223.193 60.035 Q 227.832 63.037 233.936 63.037 Q 239.502 63.037 243.579 60.889 Q 247.656 58.741 249.878 54.786 Q 252.1 50.83 252.1 45.459 L 255.078 45.948 L 235.303 45.948 L 235.303 35.694 L 264.746 35.694 L 264.746 44.434 Q 264.746 53.76 260.767 60.572 Q 256.787 67.383 249.829 71.045 Q 242.871 74.707 233.887 74.707 Q 223.828 74.707 216.26 70.166 Q 208.691 65.625 204.443 57.276 Q 200.195 48.926 200.195 37.452 Q 200.195 25.684 204.565 17.31 Q 208.936 8.936 216.455 4.468 Q 223.975 0 233.496 0 Q 239.502 0 244.702 1.758 Q 249.902 3.516 253.979 6.763 Q 258.057 10.01 260.669 14.453 Q 263.281 18.897 264.111 24.219 Z
M 77.539 73.731 L 64.502 73.731 L 64.502 0.977 L 91.699 0.977 Q 100.049 0.977 105.762 3.907 Q 111.475 6.836 114.404 12.085 Q 117.334 17.334 117.334 24.268 Q 117.334 31.202 114.38 36.328 Q 111.426 41.455 105.664 44.239 Q 99.902 47.022 91.504 47.022 L 72.07 47.022 L 72.07 36.231 L 89.795 36.231 Q 94.727 36.231 97.852 34.839 Q 100.977 33.448 102.49 30.762 Q 104.004 28.077 104.004 24.268 Q 104.004 20.362 102.49 17.603 Q 100.977 14.844 97.827 13.379 Q 94.678 11.914 89.697 11.914 L 77.539 11.914 L 77.539 73.731 Z
M 13.037 73.731 L 0 73.731 L 0 0.977 L 27.197 0.977 Q 35.547 0.977 41.26 4.102 Q 46.973 7.227 49.902 12.671 Q 52.832 18.116 52.832 25.049 Q 52.832 32.032 49.878 37.452 Q 46.924 42.871 41.162 45.996 Q 35.4 49.121 27.002 49.121 L 8.984 49.121 L 8.984 38.379 L 25.293 38.379 Q 30.225 38.379 33.374 36.67 Q 36.523 34.961 38.013 31.934 Q 39.502 28.907 39.502 25.049 Q 39.502 21.192 38.013 18.213 Q 36.523 15.235 33.35 13.575 Q 30.176 11.914 25.195 11.914 L 13.037 11.914 L 13.037 73.731 Z
M 139.111 73.731 L 124.854 73.731 L 150.244 0.977 L 166.797 0.977 L 192.773 73.731 L 178.467 73.731 L 165.527 35.938 Q 163.623 30.078 161.572 22.681 Q 159.521 15.284 157.031 5.86 L 159.766 5.86 Q 157.324 15.381 155.347 22.827 Q 153.369 30.274 151.611 35.938 L 139.111 73.731 Z
M 379.004 73.731 L 364.746 73.731 L 390.137 0.977 L 406.689 0.977 L 432.666 73.731 L 418.359 73.731 L 405.42 35.938 Q 403.516 30.078 401.465 22.681 Q 399.414 15.284 396.924 5.86 L 399.658 5.86 Q 397.217 15.381 395.239 22.827 Q 393.262 30.274 391.504 35.938 L 379.004 73.731 Z
M 120.02 73.731 L 105.42 73.731 L 87.744 40.723 L 102.002 40.723 L 120.02 73.731 Z
M 177.979 55.713 L 139.648 55.713 L 139.648 45.215 L 177.979 45.215 L 177.979 55.713 Z
M 417.871 55.713 L 379.541 55.713 L 379.541 45.215 L 417.871 45.215 L 417.871 55.713 Z"></path>
  </g>
</svg>
